<svg xmlns="http://www.w3.org/2000/svg" width="860" height="220" viewBox="0 0 860 220" role="img" aria-labelledby="title desc">
  <title id="title">LaunchShell logo</title>
  <desc id="desc">A rocket launching from a shield beside the LaunchShell wordmark.</desc>
  <rect width="860" height="220" fill="none"/>
  <g transform="translate(34 24)">
    <path d="M85 22 L22 45 V98 C22 132 48 160 84 174 C121 160 146 132 146 98 V45 Z" fill="none" stroke="#061226" stroke-width="12" stroke-linejoin="round"/>
    <g transform="translate(50 1) rotate(20 52 78)">
      <path d="M65 8 C108 19 122 60 92 104 L77 128 L48 115 L21 128 L32 97 C22 54 29 21 65 8 Z" fill="#061226"/>
      <path d="M43 70 L17 81 L30 49 L53 42 Z" fill="#061226"/>
      <path d="M84 102 L93 132 L62 116 L69 93 Z" fill="#061226"/>
      <circle cx="73" cy="46" r="13" fill="#f7f9fc" stroke="#1263ff" stroke-width="7"/>
      <path d="M35 94 L17 136" stroke="#1263ff" stroke-width="8" stroke-linecap="round"/>
      <path d="M51 101 L35 154" stroke="#1263ff" stroke-width="8" stroke-linecap="round"/>
      <path d="M66 105 L62 146" stroke="#1263ff" stroke-width="8" stroke-linecap="round"/>
      <circle cx="16" cy="142" r="7" fill="#f7f9fc" stroke="#1263ff" stroke-width="6"/>
      <circle cx="32" cy="161" r="7" fill="#f7f9fc" stroke="#1263ff" stroke-width="6"/>
      <circle cx="61" cy="153" r="7" fill="#f7f9fc" stroke="#1263ff" stroke-width="6"/>
      <path d="M42 63 L70 53" stroke="#12c995" stroke-width="10"/>
      <path d="M55 88 L78 91" stroke="#f7f9fc" stroke-width="7"/>
    </g>
  </g>
  <text x="225" y="126" font-family="Inter, system-ui, -apple-system, BlinkMacSystemFont, 'Segoe UI', sans-serif" font-size="76" font-weight="900" letter-spacing="-4" fill="#061226">Launch</text>
  <text x="501" y="126" font-family="Inter, system-ui, -apple-system, BlinkMacSystemFont, 'Segoe UI', sans-serif" font-size="76" font-weight="900" letter-spacing="-4" fill="#1263ff">Shell</text>
</svg>
