<svg xmlns="http://www.w3.org/2000/svg" width="1200" height="760" viewBox="0 0 1200 760">
  <rect width="1200" height="760" fill="#f7f9fc"/>
  <rect x="92" y="82" width="1016" height="596" rx="28" fill="#fff" stroke="#dbe5f1" stroke-width="4"/>
  <rect x="92" y="82" width="1016" height="72" rx="28" fill="#061226"/>
  <circle cx="140" cy="118" r="10" fill="#ff5f57"/><circle cx="174" cy="118" r="10" fill="#ffbd2e"/><circle cx="208" cy="118" r="10" fill="#28c840"/>
  <rect x="150" y="212" width="345" height="42" rx="10" fill="#061226"/>
  <rect x="150" y="284" width="505" height="22" rx="11" fill="#6b7a90" opacity="0.45"/>
  <rect x="150" y="326" width="452" height="22" rx="11" fill="#6b7a90" opacity="0.35"/>
  <rect x="150" y="390" width="155" height="52" rx="14" fill="#1263ff"/>
  <rect x="700" y="212" width="300" height="230" rx="24" fill="#eef4ff" stroke="#cfe0ff" stroke-width="3"/>
  <path d="M762 340l54 54 122-142" fill="none" stroke="#12c995" stroke-width="18" stroke-linecap="round" stroke-linejoin="round"/>
  <rect x="150" y="515" width="850" height="38" rx="19" fill="#eef4ff"/>
  <rect x="150" y="575" width="660" height="38" rx="19" fill="#eef4ff"/>
  <text x="150" y="635" font-family="ui-monospace, SFMono-Regular, Consolas, monospace" font-size="27" fill="#1263ff">index.html • assets/ • deploy • backup • repeat</text>
</svg>
